<svg xmlns="http://www.w3.org/2000/svg" version="1.1" xmlns:xlink="http://www.w3.org/1999/xlink" width="1000" height="1000"><svg width="1000" height="1000" viewBox="0 0 1000 1000" fill="none" xmlns="http://www.w3.org/2000/svg">
<g clip-path="url(#clip0_13_2)">
<rect width="1000" height="1000" fill="white"></rect>
<g clip-path="url(#clip1_13_2)">
<path d="M-1 499.5V1000H499.5H1000V499.5V-1.00005H499.5H-1V499.5ZM390.82 267.125V287.86H354.069H317.175L382.24 352.925L447.305 417.99L432.576 432.576L417.99 447.305L352.925 382.24L287.86 317.175V354.069V390.82H267.125H246.39V318.605V246.39H318.605H390.82V267.125ZM754.04 318.605V390.82H733.305H712.57L712.284 354.355L711.855 317.89L514.515 514.372L317.175 710.997H354.784L392.25 711.14V731.875V752.61H319.32H246.39V679.68V606.75H267.125H287.86V644.073V681.396L485.2 484.914L682.54 288.575L646.075 288.146L609.61 287.86V267.125V246.39H681.825H754.04V318.605ZM647.791 617.046L712.57 681.825V644.931V608.18H733.305H754.04V680.395V752.61H681.825H609.61V731.875V711.14H646.361H683.255L618.19 646.075L553.125 581.01L567.425 566.71C575.29 558.845 582.011 552.41 582.44 552.41C582.869 552.41 612.327 581.582 647.791 617.046Z" fill="black"></path>
</g>
</g>
<defs>
<clipPath id="SvgjsClipPath1003">
<rect width="1000" height="1000" fill="white"></rect>
</clipPath>
<clipPath id="SvgjsClipPath1002">
<rect width="1001" height="1001" fill="white" transform="translate(-1 -1)"></rect>
</clipPath>
</defs>
</svg><style>@media (prefers-color-scheme: light) { :root { filter: none; } }
@media (prefers-color-scheme: dark) { :root { filter: none; } }
</style></svg>